<svg viewBox="0 0 390 844" xmlns="http://www.w3.org/2000/svg">
  <defs>
    <radialGradient id="gs1" cx="30%" cy="20%" r="60%">
      <stop offset="0%" stop-color="#1a3870" stop-opacity="0.8"/>
      <stop offset="100%" stop-color="#080F1E" stop-opacity="0"/>
    </radialGradient>
    <radialGradient id="gs2" cx="80%" cy="70%" r="50%">
      <stop offset="0%" stop-color="#0d2d5e" stop-opacity="0.6"/>
      <stop offset="100%" stop-color="#080F1E" stop-opacity="0"/>
    </radialGradient>
  </defs>
  <rect width="390" height="844" fill="#080F1E"/>
  <rect width="390" height="844" fill="url(#gs1)"/>
  <rect width="390" height="844" fill="url(#gs2)"/>
  <!-- Stars -->
  <g opacity="0.5" fill="white">
    <circle cx="40" cy="60" r="1.2"/>
    <circle cx="120" cy="30" r="1.8"/>
    <circle cx="200" cy="80" r="1.2"/>
    <circle cx="320" cy="45" r="1.8"/>
    <circle cx="350" cy="120" r="1.2"/>
    <circle cx="80" cy="160" r="1.2"/>
    <circle cx="270" cy="200" r="1.8"/>
    <circle cx="150" cy="250" r="1.2"/>
    <circle cx="380" cy="300" r="1.2"/>
    <circle cx="22" cy="330" r="1.5"/>
    <circle cx="190" cy="360" r="1"/>
    <circle cx="340" cy="400" r="1.5"/>
    <circle cx="60" cy="450" r="1.2"/>
    <circle cx="280" cy="500" r="1.8"/>
    <circle cx="100" cy="550" r="1"/>
    <circle cx="360" cy="580" r="1.5"/>
    <circle cx="170" cy="620" r="1.2"/>
    <circle cx="50" cy="680" r="1"/>
    <circle cx="300" cy="720" r="1.5"/>
    <circle cx="130" cy="780" r="1.2"/>
    <circle cx="250" cy="820" r="1.8"/>
  </g>
  <!-- Grid lines -->
  <g stroke="rgba(255,255,255,0.03)" stroke-width="1">
    <line x1="0" y1="0" x2="0" y2="844"/>
    <line x1="48" y1="0" x2="48" y2="844"/>
    <line x1="96" y1="0" x2="96" y2="844"/>
    <line x1="144" y1="0" x2="144" y2="844"/>
    <line x1="192" y1="0" x2="192" y2="844"/>
    <line x1="240" y1="0" x2="240" y2="844"/>
    <line x1="288" y1="0" x2="288" y2="844"/>
    <line x1="336" y1="0" x2="336" y2="844"/>
    <line x1="0" y1="0" x2="390" y2="0"/>
    <line x1="0" y1="48" x2="390" y2="48"/>
    <line x1="0" y1="96" x2="390" y2="96"/>
    <line x1="0" y1="144" x2="390" y2="144"/>
    <line x1="0" y1="192" x2="390" y2="192"/>
    <line x1="0" y1="240" x2="390" y2="240"/>
    <line x1="0" y1="288" x2="390" y2="288"/>
    <line x1="0" y1="336" x2="390" y2="336"/>
    <line x1="0" y1="384" x2="390" y2="384"/>
    <line x1="0" y1="432" x2="390" y2="432"/>
    <line x1="0" y1="480" x2="390" y2="480"/>
    <line x1="0" y1="528" x2="390" y2="528"/>
    <line x1="0" y1="576" x2="390" y2="576"/>
    <line x1="0" y1="624" x2="390" y2="624"/>
    <line x1="0" y1="672" x2="390" y2="672"/>
    <line x1="0" y1="720" x2="390" y2="720"/>
    <line x1="0" y1="768" x2="390" y2="768"/>
    <line x1="0" y1="816" x2="390" y2="816"/>
  </g>
</svg>
